<?xml version="1.0" standalone="no"?>
<!DOCTYPE svg PUBLIC "-//W3C//DTD SVG 20010904//EN"
 "http://www.w3.org/TR/2001/REC-SVG-20010904/DTD/svg10.dtd">
<svg version="1.0" xmlns="http://www.w3.org/2000/svg"
 width="16.000000pt" height="16.000000pt" viewBox="0 0 16.000000 16.000000"
 preserveAspectRatio="xMidYMid meet">

<g transform="translate(0.000000,16.000000) scale(0.100000,-0.100000)"
fill="#CD5DE9" stroke="none">
<path d="M43 148 c-55 -27 -50 -114 8 -138 89 -37 151 99 63 139 -30 13 -42
13 -71 -1z m67 -29 c0 -6 -9 -24 -21 -40 -15 -21 -17 -29 -7 -29 8 0 19 5 26
12 9 9 12 8 12 -4 0 -10 -12 -18 -32 -21 -41 -6 -57 7 -36 30 29 35 32 46 9
38 -15 -5 -21 -2 -21 9 0 12 10 16 35 16 19 0 35 -5 35 -11z"/>
</g>
</svg>
